<?xml version="1.0" standalone="no"?>
<!DOCTYPE svg PUBLIC "-//W3C//DTD SVG 20010904//EN"
 "http://www.w3.org/TR/2001/REC-SVG-20010904/DTD/svg10.dtd">
<svg version="1.0" xmlns="http://www.w3.org/2000/svg"
 width="300.000000pt" height="294.000000pt" viewBox="0 0 300.000000 294.000000"
 preserveAspectRatio="xMidYMid meet">
<metadata>
Created by potrace 1.10, written by Peter Selinger 2001-2011
</metadata>
<g transform="translate(0.000000,294.000000) scale(0.100000,-0.100000)"
fill="#000000" stroke="none">
<path d="M1477 2833 c-4 -3 -4 -61 -1 -127 3 -67 7 -217 7 -334 l2 -212 -27 0
c-46 0 -170 -29 -258 -60 -121 -44 -187 -77 -286 -145 -70 -48 -152 -149 -211
-262 -9 -18 -22 -33 -28 -33 -6 0 -26 60 -44 133 -70 281 -93 326 -104 205 -4
-35 -13 -103 -21 -153 -8 -49 -17 -155 -21 -235 -4 -80 -9 -147 -11 -149 -2
-2 -94 16 -204 41 -110 25 -200 41 -200 36 0 -4 3 -8 8 -8 8 0 85 -65 196
-164 38 -33 79 -67 92 -74 13 -7 24 -16 24 -20 0 -5 -16 -25 -35 -46 -19 -21
-35 -42 -35 -47 0 -4 -6 -12 -13 -16 -7 -4 -30 -30 -52 -58 -22 -27 -52 -63
-67 -79 -16 -17 -28 -38 -28 -48 0 -21 13 -23 28 -5 13 15 117 65 237 112 50
20 96 38 103 42 12 5 18 -63 13 -143 -1 -18 2 -35 8 -39 6 -3 11 -15 11 -25 0
-27 60 -180 71 -180 5 0 9 -7 9 -14 0 -18 68 -136 78 -136 4 -1 23 -23 42 -50
19 -28 43 -53 53 -56 10 -3 16 -12 13 -20 -8 -20 68 -78 170 -128 125 -62 181
-86 196 -86 8 0 18 -4 23 -9 24 -22 136 -45 235 -48 58 -2 110 -3 115 -3 18
-1 89 7 140 15 28 5 56 8 63 6 27 -5 171 43 242 81 103 55 251 177 297 244
l23 33 35 -33 c38 -36 43 -46 21 -46 -8 0 -16 -3 -18 -7 -5 -13 -91 -79 -123
-96 -49 -25 -10 -29 90 -8 50 10 92 17 95 14 5 -5 6 -64 0 -133 -3 -33 -1 -56
5 -57 6 -1 32 41 59 93 56 105 56 105 163 85 81 -16 193 -20 193 -7 0 7 -45
34 -101 61 -55 28 -103 53 -105 56 -2 4 28 26 66 48 39 23 70 46 70 51 0 6
-45 10 -106 10 l-106 0 6 33 c4 17 9 74 13 124 7 107 -1 116 -44 52 -28 -42
-33 -50 -82 -129 -28 -46 -46 -57 -70 -41 -12 8 -12 13 0 33 30 45 78 184 95
273 48 243 -2 557 -123 775 -66 118 -241 277 -361 327 -20 8 -61 26 -91 39
-64 30 -153 51 -264 65 -45 5 -93 12 -107 14 l-25 5 0 228 c0 374 -8 466 -38
435z m76 -708 c32 -13 77 -67 77 -93 0 -10 -129 -33 -142 -25 -5 2 -8 33 -8
69 0 72 7 77 73 49z m-112 -2 c1 -5 2 -26 3 -48 1 -22 5 -46 10 -53 5 -9 -3
-12 -30 -12 -43 0 -114 20 -114 31 0 5 23 27 51 49 48 38 78 50 80 33z m284
-4 c51 -13 50 -19 -7 -55 -31 -20 -42 -23 -54 -13 -8 6 -14 17 -14 24 0 7 -7
18 -15 25 -37 31 7 40 90 19z m-414 -39 c-17 -17 -36 -28 -41 -25 -17 11 -11
24 18 39 45 25 57 18 23 -14z m623 -141 l16 -26 -42 -16 c-24 -9 -59 -20 -78
-25 -19 -6 -43 -13 -52 -17 -10 -4 -18 -3 -18 3 0 8 -45 111 -68 154 -2 3 12
14 32 23 19 9 42 25 52 36 17 19 19 18 79 -43 34 -35 70 -75 79 -89z m2 106
c46 -25 85 -49 88 -54 3 -4 -5 -18 -18 -30 l-24 -23 -77 76 c-42 42 -71 76
-64 76 6 0 49 -20 95 -45z m-694 -42 c-13 -16 -35 -47 -50 -70 -15 -23 -31
-42 -37 -43 -5 0 -23 11 -40 25 l-30 25 69 65 70 66 20 -21 20 -20 -22 -27z
m-141 -5 c-34 -34 -44 -40 -51 -28 -14 22 -13 23 28 46 60 35 69 27 23 -18z
m254 3 c22 -6 52 -13 67 -16 27 -5 28 -6 27 -80 -1 -84 4 -80 -85 -64 -138 24
-174 32 -174 38 0 9 49 80 71 102 11 11 19 24 19 30 0 6 8 9 18 6 9 -4 35 -11
57 -16z m341 -75 c19 -43 32 -81 30 -84 -3 -3 -60 -7 -127 -10 l-121 -5 4 74
4 74 57 7 c32 4 65 12 75 18 31 18 43 6 78 -74z m-666 28 c11 -13 9 -19 -18
-43 -17 -16 -45 -52 -63 -81 l-33 -53 -23 27 c-13 15 -23 31 -23 36 0 5 28 33
63 61 34 29 64 56 65 60 5 13 18 11 32 -7z m1101 -36 c38 -29 69 -57 69 -62 0
-14 -90 -116 -103 -116 -7 0 -24 26 -38 58 -15 31 -36 68 -47 82 l-21 25 32
33 c17 17 33 32 35 32 3 0 36 -24 73 -52z m-1531 -129 c51 -208 53 -213 88
-205 15 4 41 9 57 12 17 3 37 10 46 15 9 4 52 18 95 30 43 12 88 24 99 27 19
5 19 5 1 -23 -19 -29 -84 -112 -132 -169 -13 -15 -24 -36 -24 -45 0 -31 110
-126 226 -197 11 -7 17 -14 14 -17 -3 -3 -79 -8 -170 -11 -91 -2 -171 -5 -179
-5 -11 -1 -13 -18 -9 -88 3 -49 3 -126 -1 -173 l-6 -85 -51 105 c-29 58 -60
129 -70 158 -10 28 -23 52 -27 52 -5 0 -36 -13 -70 -28 -34 -16 -91 -39 -127
-52 -36 -13 -74 -29 -85 -37 -40 -27 -36 -12 12 44 67 80 133 168 133 179 0
12 -123 128 -132 126 -5 -1 -8 2 -8 7 0 5 -23 23 -51 41 -28 17 -49 33 -46 36
2 3 48 -6 101 -20 53 -14 123 -28 156 -32 l60 -7 1 39 c0 22 2 50 4 64 1 14 6
72 9 130 12 180 30 310 41 298 3 -3 23 -79 45 -169z m505 94 c22 -14 41 -27
43 -28 1 -1 -8 -24 -20 -51 -23 -51 -26 -61 -35 -107 -4 -19 -11 -27 -22 -25
-9 2 -15 11 -13 21 2 13 -4 17 -29 17 -29 0 -89 33 -89 49 0 4 8 16 18 27 9
10 34 43 56 72 21 28 41 52 45 52 3 0 24 -12 46 -27z m905 -74 c25 -45 46 -84
48 -88 2 -7 -163 -92 -204 -105 -19 -6 -22 -2 -27 41 -3 27 -17 76 -30 110
l-25 61 67 17 c36 9 77 23 91 30 14 8 27 14 30 14 3 1 25 -36 50 -80z m-683 8
l122 -20 3 -99 c2 -55 1 -101 -2 -102 -17 -9 -197 17 -260 37 -87 27 -87 25
-42 145 20 55 30 71 42 66 8 -3 70 -15 137 -27z m997 -109 c23 -44 24 -51 11
-81 -7 -18 -42 -56 -76 -85 -74 -63 -65 -71 -130 104 l-23 61 42 38 c24 21 50
51 60 67 l17 30 37 -44 c21 -23 49 -64 62 -90z m-1464 88 c0 -7 9 -21 20 -31
19 -17 19 -18 -3 -58 -19 -34 -32 -44 -87 -64 -36 -12 -69 -23 -73 -23 -10 0
38 81 87 147 36 49 56 59 56 29z m894 -10 c17 -41 50 -175 45 -180 -2 -2 -72
-7 -155 -11 l-151 -7 -6 69 c-4 37 -7 84 -7 105 l0 36 108 7 c59 3 112 8 117
10 25 9 36 3 49 -29z m-794 -87 c0 -8 -26 -19 -46 -19 -17 0 -18 22 -3 37 9 9
16 9 30 0 11 -7 19 -15 19 -18z m1120 -20 c0 -14 23 -68 61 -143 17 -32 29
-59 27 -61 -11 -10 -144 -65 -157 -65 -10 0 -22 -5 -29 -12 -7 -7 -12 -9 -12
-5 0 3 -20 0 -45 -7 -37 -12 -46 -12 -55 0 -7 7 -9 21 -6 31 3 10 -1 50 -9 88
-7 39 -10 73 -7 76 4 3 27 13 52 23 25 9 72 32 105 50 68 38 75 40 75 25z
m-1026 -25 c20 -8 20 -27 2 -80 -14 -39 -24 -101 -25 -156 -1 -16 -6 -28 -11
-28 -17 0 -140 54 -140 61 0 4 24 36 54 72 29 36 63 82 76 101 24 40 22 38 44
30z m146 -56 c36 -11 103 -22 150 -25 47 -3 91 -10 97 -15 9 -7 12 -43 10
-122 l-2 -111 -85 3 c-85 2 -235 25 -277 42 -20 9 -22 15 -19 63 3 29 7 71 11
93 3 21 8 54 11 72 4 27 9 32 22 27 9 -4 46 -17 82 -27z m1177 6 c-6 -6 15
-73 34 -111 7 -12 9 -32 6 -45 -7 -28 -85 -120 -134 -160 -41 -32 -52 -26 -51
32 0 30 -11 91 -23 126 -2 6 26 36 63 68 38 31 73 66 78 77 6 10 16 19 22 19
6 0 9 -3 5 -6z m-564 -121 c3 -45 8 -86 11 -92 22 -36 -65 -60 -236 -67 l-98
-4 0 123 0 122 62 -3 c35 -1 104 1 153 6 50 4 93 6 97 3 4 -4 9 -43 11 -88z
m391 -184 l7 -56 -49 -21 c-27 -12 -57 -20 -68 -20 -10 1 -41 -6 -69 -15 -27
-9 -71 -23 -97 -31 l-47 -14 -6 66 c-3 37 -7 78 -8 91 -2 23 6 28 103 61 58
19 127 47 155 61 l50 25 11 -45 c7 -25 15 -71 18 -102z m-1306 109 c20 -12 56
-27 82 -34 42 -10 45 -13 48 -48 2 -20 0 -36 -5 -36 -4 0 -42 27 -83 60 -41
33 -78 60 -82 60 -5 0 -8 5 -8 10 0 15 9 13 48 -12z m1561 -153 l7 -110 -33
-36 c-31 -35 -143 -109 -164 -109 -5 0 -9 35 -9 78 0 42 -4 93 -9 113 -8 34
-6 37 23 54 43 24 124 104 143 140 l16 30 9 -25 c5 -14 13 -74 17 -135z
m-1283 70 c38 -9 115 -18 172 -22 56 -3 103 -9 103 -12 1 -3 2 -53 3 -110 l2
-104 -110 7 c-140 8 -266 29 -277 47 -5 8 -9 24 -9 37 0 18 6 22 30 22 38 0
39 20 1 48 -23 17 -28 27 -26 54 2 18 4 39 4 46 1 8 8 11 20 7 10 -3 49 -12
87 -20z m655 -37 c0 -18 2 -61 4 -95 4 -71 7 -68 -90 -77 -28 -3 -63 -10 -78
-15 -16 -6 -47 -11 -70 -11 -23 0 -57 -4 -75 -9 -29 -9 -32 -8 -32 12 0 12 -2
64 -3 116 l-2 93 65 -7 c89 -10 156 -7 215 9 28 8 53 15 58 15 4 1 7 -14 8
-31z m391 -120 c1 -24 3 -78 3 -120 1 -74 1 -77 -24 -83 -14 -4 -28 -11 -31
-15 -3 -5 -21 -11 -41 -13 -19 -2 -41 -7 -48 -11 -22 -14 -201 -64 -205 -57
-1 3 -2 20 -1 36 1 17 3 69 3 116 l2 86 52 7 c58 8 211 59 243 81 34 24 45 18
47 -27z m-1204 -5 c4 -28 4 -28 -88 2 l-75 24 80 -2 c75 -2 80 -3 83 -24z
m-92 -24 l92 -30 7 -57 c4 -31 13 -86 21 -121 8 -35 13 -66 10 -69 -4 -3 -41
6 -83 21 -43 14 -97 31 -120 37 -24 6 -44 16 -44 23 -1 7 -3 21 -4 32 -2 11
-7 62 -11 114 l-7 93 24 -7 c13 -4 65 -20 115 -36z m-157 -80 c1 -78 -1 -110
-9 -107 -7 2 -11 39 -11 103 0 122 -1 115 10 115 5 0 9 -50 10 -111z m531 1
c80 -7 147 -14 149 -16 2 -2 6 -54 8 -115 l4 -112 -99 6 c-55 3 -135 11 -180
18 l-80 12 -12 76 c-7 42 -16 95 -20 118 -4 23 -5 44 -3 47 2 2 23 -2 46 -9
23 -7 107 -18 187 -25z m545 -18 c-1 -27 -4 -53 -7 -58 -3 -5 -4 -35 -3 -66
l2 -58 -31 0 c-17 0 -49 -5 -71 -9 -34 -8 -96 -15 -205 -24 -25 -2 -25 -2 -31
108 -3 61 -5 111 -4 113 3 3 220 31 280 35 28 2 55 4 60 5 7 1 10 -18 10 -46z
m610 16 c-2 -13 -9 -48 -15 -78 -6 -30 -16 -82 -23 -115 l-13 -60 -93 -53
c-50 -30 -94 -52 -97 -49 -3 2 4 41 15 85 12 44 21 96 21 115 0 43 13 57 89
97 33 18 69 43 82 56 28 30 41 31 34 2z m-1794 -163 c50 -103 69 -121 69 -67
0 50 13 103 23 99 12 -4 38 -93 29 -101 -2 -3 0 -12 6 -19 7 -8 9 -16 6 -19
-3 -3 2 -23 10 -43 9 -20 13 -41 10 -46 -3 -5 -37 8 -75 28 -69 38 -69 39 -98
113 -29 75 -48 160 -37 160 4 0 29 -47 57 -105z m1563 24 c-3 -6 -8 -28 -11
-48 -2 -20 -8 -47 -12 -61 -5 -14 -14 -45 -21 -70 -6 -25 -15 -52 -20 -60 -7
-15 -194 -82 -263 -94 l-37 -7 6 68 c3 37 7 86 8 108 6 90 3 85 40 85 39 0
191 42 251 70 46 21 69 25 59 9z m-1267 -60 l110 -34 13 -50 c6 -27 23 -81 37
-118 14 -38 23 -70 21 -72 -7 -7 -91 15 -179 46 l-86 30 -21 82 c-41 155 -42
163 -19 154 8 -3 63 -20 124 -38z m385 -65 c131 -8 124 -3 133 -89 6 -55 11
-95 15 -110 10 -40 4 -41 -181 -24 l-126 12 -36 113 c-21 62 -37 117 -37 122
0 5 26 3 58 -4 31 -7 110 -17 174 -20z m489 -11 c1 -27 1 -51 0 -55 -1 -12
-13 -122 -14 -140 -1 -13 -16 -18 -72 -23 -125 -11 -196 -11 -206 2 -6 6 -13
58 -16 116 -7 122 -17 112 122 122 50 4 108 10 130 15 22 4 43 8 48 9 4 0 8
-20 8 -46z m731 -45 c-6 -29 -13 -77 -16 -105 l-5 -53 57 -2 c31 -1 69 -2 85
-2 15 -1 27 -4 27 -8 0 -5 -4 -8 -8 -8 -5 0 -28 -14 -51 -31 -39 -28 -41 -32
-27 -47 8 -9 49 -33 90 -52 41 -19 75 -38 76 -41 0 -3 -39 0 -87 8 -49 8 -108
13 -133 11 -44 -3 -45 -4 -75 -65 -16 -34 -32 -62 -35 -62 -3 -1 -4 28 -2 64
5 79 -2 84 -88 62 -33 -8 -60 -11 -60 -6 0 5 4 9 9 9 11 0 111 80 111 88 0 10
-47 59 -66 70 -11 6 -14 16 -9 32 7 22 15 23 70 5 17 -5 25 2 42 32 44 80 96
163 100 159 3 -2 0 -28 -5 -58z m-182 -8 c-12 -10 -21 -21 -21 -24 2 -13 -52
-110 -75 -135 -13 -14 -24 -31 -24 -36 0 -6 -24 -32 -52 -56 -86 -74 -131 -90
-92 -32 31 46 63 114 76 165 6 26 17 48 22 48 6 0 47 22 91 49 77 47 118 59
75 21z m-1540 -97 c0 -6 3 -13 8 -15 4 -1 18 -28 32 -58 14 -30 35 -65 48 -79
35 -38 26 -45 -20 -18 -35 20 -107 95 -156 162 -16 21 -52 83 -52 88 0 3 31
-11 70 -31 38 -20 70 -42 70 -49z m1302 -35 c-7 -7 -12 -23 -12 -37 0 -13 -6
-32 -14 -40 -7 -9 -22 -40 -32 -70 -21 -59 -21 -60 -139 -90 -88 -22 -155 -33
-155 -24 0 12 31 119 39 133 5 9 12 30 15 47 7 28 12 32 66 42 32 6 96 24 142
40 79 27 117 26 90 -1z m-1178 1 c26 -11 79 -26 118 -32 42 -7 74 -18 79 -27
31 -57 66 -139 61 -144 -3 -3 0 -6 6 -6 7 0 12 -9 12 -21 0 -15 -5 -19 -17
-15 -10 3 -38 10 -63 15 -73 17 -142 47 -153 67 -5 10 -18 28 -28 39 -15 18
-79 131 -79 141 0 8 19 3 64 -17z m480 -68 c50 -6 51 -7 57 -47 4 -22 10 -68
14 -102 l6 -62 -38 0 c-21 0 -72 5 -114 11 l-75 12 -45 95 c-24 52 -46 99 -48
104 -3 10 125 4 243 -11z m353 -4 c-2 -7 -10 -39 -17 -71 -6 -32 -18 -73 -25
-90 -13 -30 -19 -34 -67 -39 -125 -15 -120 -19 -138 93 -18 117 -25 109 93
113 56 1 115 4 131 5 19 1 27 -2 23 -11z m-779 -144 c29 -29 6 -32 -31 -3 -14
11 -30 20 -36 20 -15 0 -14 17 2 23 13 5 31 -6 65 -40z m173 -49 c75 -16 121
-46 102 -65 -6 -6 -37 0 -84 17 -99 35 -129 52 -129 70 0 11 4 12 18 5 11 -6
52 -18 93 -27z m874 26 c-21 -34 -280 -129 -298 -111 -14 14 2 48 26 55 12 3
36 6 52 6 38 0 140 26 174 44 32 17 54 20 46 6z m-608 -67 c51 -5 62 -9 67
-27 13 -48 11 -49 -66 -42 -90 9 -108 14 -108 30 0 8 -7 19 -15 26 -27 22 -17
33 23 26 20 -3 65 -9 99 -13z m259 -15 c-3 -13 -6 -26 -6 -30 0 -10 -108 -31
-120 -23 -5 3 -10 19 -10 35 0 28 2 29 58 33 31 2 63 4 71 5 9 1 12 -5 7 -20z"/>
</g>
</svg>
